<svg width="40" height="40" viewBox="0 0 40 40" fill="none" xmlns="http://www.w3.org/2000/svg">
<path d="M37.3631 16.3706C37.7055 15.3555 37.8801 14.2927 37.8803 13.2228C37.8802 11.4525 37.4022 9.71423 36.4957 8.18657C34.674 5.0579 31.2948 3.12629 27.6376 3.12629C26.9171 3.1263 26.1986 3.20138 25.4941 3.35029C24.5465 2.29687 23.3834 1.45362 22.0814 0.876126C20.7794 0.298636 19.3681 3.07882e-05 17.9406 0H17.8765L17.8524 0.000139571C13.4229 0.000139571 9.49466 2.82033 8.13298 6.97792C6.72347 7.26277 5.39189 7.84142 4.22738 8.67515C3.06287 9.50888 2.0923 10.5784 1.38064 11.8122C0.476836 13.3491 0.000553063 15.0943 0 16.8711C0.000345403 19.3683 0.939802 21.7765 2.63645 23.6294C2.29397 24.6445 2.1193 25.7073 2.11916 26.7772C2.11932 28.5475 2.59722 30.2858 3.50376 31.8134C4.5818 33.6654 6.2281 35.1317 8.20527 36.0009C10.1824 36.8701 12.3883 37.0972 14.5047 36.6496C15.4525 37.703 16.6157 38.5463 17.9178 39.1238C19.2199 39.7013 20.6313 39.9999 22.0589 40H22.123L22.149 39.9999C26.5809 39.9999 30.5079 37.1795 31.8696 33.0182C33.2791 32.7332 34.6107 32.1545 35.7752 31.3208C36.9397 30.487 37.9103 29.4175 38.622 28.1837C39.5249 26.6482 40.0003 24.9045 40 23.1293C39.9997 20.6322 39.0598 18.2235 37.3631 16.3706ZM22.1255 37.385H22.1151C20.3416 37.3844 18.6245 36.7705 17.2624 35.6501C17.3432 35.6071 17.4232 35.5624 17.5021 35.5161L25.5739 30.9156C25.7754 30.8025 25.9429 30.6388 26.0594 30.4411C26.1759 30.2434 26.2374 30.0188 26.2374 29.7901V18.5542L29.6492 20.4979C29.6671 20.5067 29.6826 20.5198 29.6941 20.5359C29.7057 20.552 29.7131 20.5706 29.7156 20.5902V29.8888C29.7109 34.0229 26.3157 37.3766 22.1255 37.385ZM5.8028 30.5063C5.13606 29.3688 4.78479 28.0781 4.78434 26.7641C4.78434 26.3355 4.82227 25.9058 4.89615 25.4835C4.95616 25.5189 5.06089 25.5821 5.13605 25.6247L13.2079 30.2251C13.4091 30.341 13.638 30.4021 13.871 30.402C14.104 30.402 14.3329 30.3408 14.534 30.2248L24.3889 24.6103V28.4979L24.389 28.5046C24.389 28.5233 24.3846 28.5418 24.3762 28.5585C24.3677 28.5753 24.3554 28.5899 24.3402 28.6011L16.1803 33.2497C15.0258 33.9054 13.717 34.2506 12.3849 34.251C11.0513 34.2508 9.74124 33.9047 8.586 33.2474C7.43076 32.5901 6.47095 31.6451 5.8028 30.5063ZM3.67926 13.1193C4.56581 11.6 5.96565 10.4366 7.6338 9.83288C7.6338 9.90145 7.62984 10.0229 7.62984 10.1073V19.3083L7.6297 19.3158C7.62973 19.5443 7.69104 19.7686 7.8074 19.9662C7.92376 20.1637 8.09103 20.3273 8.29221 20.4404L18.1471 26.0541L14.7354 27.9978C14.7186 28.0088 14.6993 28.0155 14.6792 28.0173C14.6591 28.0191 14.6389 28.0159 14.6204 28.0082L6.45965 23.3557C5.30601 22.6963 4.34828 21.7493 3.68244 20.6096C3.0166 19.4699 2.66604 18.1775 2.66589 16.862C2.6664 15.5486 3.01554 14.2579 3.67926 13.1193ZM31.7103 19.5556L21.8555 13.9412L25.2672 11.9981C25.2841 11.9872 25.3034 11.9805 25.3235 11.9787C25.3435 11.9769 25.3638 11.98 25.3823 11.9878L33.5429 16.6364C34.6975 17.2948 35.6562 18.2412 36.3229 19.3808C36.9895 20.5204 37.3406 21.813 37.3409 23.1287C37.3409 26.2693 35.3548 29.0794 32.3685 30.1641V20.688C32.3689 20.6845 32.3689 20.6809 32.3689 20.6774C32.3688 20.4497 32.3079 20.2262 32.1923 20.0292C32.0767 19.8323 31.9104 19.6689 31.7103 19.5556ZM35.1061 14.5128C35.0268 14.4648 34.9468 14.4178 34.8664 14.3717L26.7945 9.77115C26.5933 9.65544 26.3645 9.59444 26.1316 9.59436C25.8987 9.59444 25.6699 9.65544 25.4686 9.77115L15.6136 15.3857V11.498L15.6135 11.4913C15.6135 11.4533 15.6318 11.4176 15.6625 11.3948L23.8223 6.75015C24.9765 6.0936 26.2854 5.74797 27.6177 5.7479C31.8132 5.7479 35.2157 9.10503 35.2157 13.2448C35.2155 13.6696 35.1788 14.094 35.1061 14.5128ZM13.7587 21.4418L10.3463 19.498C10.3283 19.4892 10.3129 19.4762 10.3013 19.4601C10.2898 19.444 10.2824 19.4253 10.2799 19.4057V10.107C10.2817 5.96952 13.6841 2.61518 17.8779 2.61518C19.654 2.61555 21.374 3.22948 22.7393 4.35045C22.6779 4.38354 22.5708 4.44192 22.4996 4.48451L14.4278 9.08492C14.2263 9.19798 14.0589 9.36164 13.9424 9.55927C13.8258 9.75689 13.7644 9.98143 13.7644 10.2101V10.2175L13.7587 21.4418ZM15.6121 17.4991L20.0013 14.9977L24.3905 17.4974V22.4985L20.0013 24.9983L15.6121 22.4985V17.4991Z" fill="black"/>
</svg>
